<?xml version="1.0" encoding="UTF-8" standalone="no"?>
<!DOCTYPE svg PUBLIC "-//W3C//DTD SVG 1.1//EN" "http://www.w3.org/Graphics/SVG/1.1/DTD/svg11.dtd">
<svg width="100%" height="100%" viewBox="0 0 760 806" version="1.1" xmlns="http://www.w3.org/2000/svg" xmlns:xlink="http://www.w3.org/1999/xlink" xml:space="preserve" xmlns:serif="http://www.serif.com/" style="fill-rule:evenodd;clip-rule:evenodd;stroke-linejoin:round;stroke-miterlimit:1.41421;">
    <g transform="matrix(1,0,0,1,-1258.46,-1235.75)">
        <g transform="matrix(1,0,0,1,1138.39,1138.54)">
            <g transform="matrix(0.759863,0,0,0.805576,-1076.21,43.2208)">
                <rect x="1574.34" y="67.021" width="1000" height="1000" style="fill:none;"/>
                <g transform="matrix(1.31603,0,0,1.24135,-265.263,-53.6521)">
                    <g transform="matrix(1.08543,0.167653,-0.167653,1.08543,-462.557,-482.108)">
                        <path d="M2085.97,239.628C2127.09,215.89 2177.74,215.89 2218.85,239.628C2274.04,271.488 2352.16,316.59 2407.34,348.451C2448.45,372.188 2473.78,416.056 2473.78,463.531C2473.78,527.252 2473.78,617.456 2473.78,681.177C2473.78,728.652 2448.45,772.52 2407.34,796.258C2352.16,828.118 2274.04,873.22 2218.85,905.081C2177.74,928.818 2127.09,928.818 2085.97,905.081C2030.79,873.22 1952.67,828.118 1897.48,796.258C1856.37,772.52 1831.04,728.652 1831.04,681.177C1831.04,617.456 1831.04,527.252 1831.04,463.531C1831.04,416.056 1856.37,372.188 1897.48,348.451C1952.67,316.59 2030.79,271.488 2085.97,239.628Z" style="fill:rgb(0,210,255);"/>
                    </g>
                    <g transform="matrix(1.49345,0,0,1.49345,-1253.78,-326.598)">
                        <text x="1921.4px" y="637.192px" style="font-family:'ProductSans-Bold', 'Product Sans', sans-serif;font-weight:700;font-size:262.726px;fill:white;">in</text>
                    </g>
                </g>
            </g>
        </g>
    </g>
</svg>
